<?xml version="1.0" encoding="UTF-8" standalone="no"?>
<!-- Created with Inkscape (http://www.inkscape.org/) -->

<svg
   version="1.1"
   id="svg1"
   width="150.32001"
   height="132.06667"
   viewBox="0 0 150.32001 132.06667"
   sodipodi:docname="Grüne Logo Bund dunkelgrün RGB.eps"
   xmlns:inkscape="http://www.inkscape.org/namespaces/inkscape"
   xmlns:sodipodi="http://sodipodi.sourceforge.net/DTD/sodipodi-0.dtd"
   xmlns="http://www.w3.org/2000/svg"
   xmlns:svg="http://www.w3.org/2000/svg">
  <defs
     id="defs1" />
  <sodipodi:namedview
     id="namedview1"
     pagecolor="#ffffff"
     bordercolor="#000000"
     borderopacity="0.25"
     inkscape:showpageshadow="2"
     inkscape:pageopacity="0.0"
     inkscape:pagecheckerboard="0"
     inkscape:deskcolor="#d1d1d1">
    <inkscape:page
       x="0"
       y="0"
       inkscape:label="1"
       id="page1"
       width="150.32001"
       height="132.06667"
       margin="0"
       bleed="0" />
  </sodipodi:namedview>
  <g
     id="g1"
     inkscape:groupmode="layer"
     inkscape:label="1">
    <g
       id="group-R5">
      <path
         id="path2"
         d="m 120.934,115.828 c -1.692,19.289 -12.391,25.527 -27.8637,24.18 l -4.3476,-0.379 4.8398,-55.2735 4.3398,0.3828 c 15.4687,1.3476 24.9107,9.539 23.2387,28.6487 l -0.207,2.441"
         style="fill:#2d793c;fill-opacity:1;fill-rule:nonzero;stroke:none"
         transform="matrix(0.13333333,0,0,-0.13333333,0,132.06667)" />
      <path
         id="path3"
         d="m 535.262,180.266 -12.34,-1.078 2.351,-26.942 12.168,1.07 c 8.34,0.731 13.34,5.719 12.59,14.243 l -0.07,0.859 c -0.77,8.687 -6.527,12.57 -14.699,11.848"
         style="fill:#2d793c;fill-opacity:1;fill-rule:nonzero;stroke:none"
         transform="matrix(0.13333333,0,0,-0.13333333,0,132.06667)" />
      <path
         id="path4"
         d="m 1039.17,133.637 -41.057,50.879 4.727,-54.059 -36.848,-3.219 -10.64,121.66 35.628,3.118 39.09,-48.418 -4.5,51.437 36.67,3.211 10.64,-121.66 z m -180.057,-15.75 -10.652,121.66 89.16,7.801 2.801,-31.981 -51.969,-4.551 1.219,-13.898 48.141,4.211 2.558,-29.203 -48.148,-4.207 1.281,-14.602 52.84,4.621 2.797,-31.98 z m -53.011,-4.641 -41.059,50.871 4.73,-54.051 -36.839,-3.218 -10.653,121.66 35.629,3.121 39.094,-48.422 -4.5,51.441 36.668,3.207 10.641,-121.66 z M 661.883,98.1758 c -31.281,-2.7383 -53.641,10.5432 -56.82,46.8712 l -6.352,72.648 38.062,3.332 6.387,-73 c 1.063,-12.16 7.621,-17.019 16.133,-16.281 8.52,0.75 14.16,6.32 13.109,18.313 l -6.429,73.519 37.89,3.32 6.297,-71.96 c 3.25,-37.192 -16.816,-54.012 -48.277,-56.7622 z m -106.063,-6.8281 -22.039,33.8003 -6.09,-0.531 3.102,-35.4607 -37.359,-3.2696 -10.653,121.6723 50.063,4.379 c 18.769,1.64 32.207,-1.911 41.097,-9.372 7.75,-6.5 12.379,-15.378 13.493,-28.058 l 0.089,-1.051 c 1.528,-17.551 -5.82,-29.578 -17.742,-37.449 L 597.883,95.0273 Z M 429.852,77.8789 c -33.711,-2.9531 -62.34,18.0078 -65.692,56.2501 l -0.289,3.297 c -3.219,36.851 20.672,63.98 54.91,66.98 17.563,1.539 31.762,-2.648 45.16,-11.64 l -17.398,-29.368 c -6.742,5.02 -14.223,8.387 -23.262,7.598 -13.73,-1.199 -23.008,-13.219 -21.429,-31.301 l 0.191,-2.078 c 1.699,-19.469 12.867,-29 26.25,-27.828 5.039,0.438 7.738,1.559 9.898,2.969 l -1.281,14.597 -16.687,-1.457 -2.313,26.418 51.453,4.5 5.207,-59.6207 C 463.703,87.3164 448.453,79.5078 429.852,77.8789 Z M 238.633,63.5977 227.992,185.266 l 89.16,7.8 2.801,-31.98 -51.973,-4.551 1.211,-13.898 48.153,4.211 2.547,-29.2 -48.137,-4.21 1.277,-14.6021 52.832,4.6211 2.797,-31.9804 z m -57.012,-4.9805 -10.641,121.6598 37.543,3.282 10.649,-121.6606 z m -82.7304,-7.2383 -39.9687,-3.5 -10.6406,121.6601 40.8398,3.578 c 43.1019,3.77 66.6519,-17.121 69.8129,-53.269 l 0.226,-2.602 C 162.32,81.0859 142.523,55.1875 98.8906,51.3789 Z m 546.5624,200.5271 2.098,-23.98 -28.5,-2.5 -2.098,23.992 z m 34.758,3.039 2.102,-23.976 -28.5,-2.5 -2.102,23.988 z M 1103.28,306.141 0,209.621 18.3398,0 1121.61,96.5195 1103.28,306.141"
         style="fill:#2d793c;fill-opacity:1;fill-rule:nonzero;stroke:none"
         transform="matrix(0.13333333,0,0,-0.13333333,0,132.06667)" />
      <path
         id="path5"
         d="m 13.1563,440.598 1.289,-3.75 0.2813,2.449 0.25,2.43 -2.4102,-0.207 0.5899,-0.922"
         style="fill:#2d793c;fill-opacity:1;fill-rule:nonzero;stroke:none"
         transform="matrix(0.13333333,0,0,-0.13333333,0,132.06667)" />
      <path
         id="path6"
         d="m 20.1563,426.906 -0.6915,-2.957 -0.1875,-3.422 1.9571,-0.339 1.9609,-0.301 -1.1094,1.863 -1.9296,5.156"
         style="fill:#2d793c;fill-opacity:1;fill-rule:nonzero;stroke:none"
         transform="matrix(0.13333333,0,0,-0.13333333,0,132.06667)" />
      <path
         id="path7"
         d="m 9.50781,504.289 2.32029,1.41 -3.27341,9.43 -0.94922,-0.09 -0.4375,-0.539 0.00781,-11.391 2.33203,1.18"
         style="fill:#2d793c;fill-opacity:1;fill-rule:nonzero;stroke:none"
         transform="matrix(0.13333333,0,0,-0.13333333,0,132.06667)" />
      <path
         id="path8"
         d="m 15.4844,435.957 0.8203,-9.391 2.4219,0.211 -0.5625,0.922 -2.6797,8.258"
         style="fill:#2d793c;fill-opacity:1;fill-rule:nonzero;stroke:none"
         transform="matrix(0.13333333,0,0,-0.13333333,0,132.06667)" />
      <path
         id="path9"
         d="m 387.965,825.898 1.39,0.59 -3.519,1.149 0.211,-2.41 1.918,0.671"
         style="fill:#2d793c;fill-opacity:1;fill-rule:nonzero;stroke:none"
         transform="matrix(0.13333333,0,0,-0.13333333,0,132.06667)" />
      <path
         id="path10"
         d="m 268.656,765.027 -2.398,-0.211 -0.672,-3.468 1.301,1.57 1.769,2.109"
         style="fill:#2d793c;fill-opacity:1;fill-rule:nonzero;stroke:none"
         transform="matrix(0.13333333,0,0,-0.13333333,0,132.06667)" />
      <path
         id="path11"
         d="m 270.957,766.68 -2.512,0.75 0.211,-2.403 1.41,0.582 0.891,1.071"
         style="fill:#2d793c;fill-opacity:1;fill-rule:nonzero;stroke:none"
         transform="matrix(0.13333333,0,0,-0.13333333,0,132.06667)" />
      <path
         id="path12"
         d="m 372.246,819.406 0.981,0.082 9.507,-0.609 -0.777,3.328 -0.699,2.602 -3.621,-0.321 0.187,-2.172 -5.789,-0.507 0.211,-2.403"
         style="fill:#2d793c;fill-opacity:1;fill-rule:nonzero;stroke:none"
         transform="matrix(0.13333333,0,0,-0.13333333,0,132.06667)" />
      <path
         id="path13"
         d="m 875.848,699.809 -1.782,-2.051 -1.769,3.699 -0.063,-1.957 -0.296,-1.934 -3.872,-0.339 0.09,-0.969 10.809,0.949 -0.668,2.371 -1.18,2.309 -1.269,-2.078"
         style="fill:#2d793c;fill-opacity:1;fill-rule:nonzero;stroke:none"
         transform="matrix(0.13333333,0,0,-0.13333333,0,132.06667)" />
      <path
         id="path14"
         d="m 879.938,697.289 6.257,0.551 -0.418,4.797 -2.422,-0.207 -3.417,-5.141"
         style="fill:#2d793c;fill-opacity:1;fill-rule:nonzero;stroke:none"
         transform="matrix(0.13333333,0,0,-0.13333333,0,132.06667)" />
      <path
         id="path15"
         d="m 635.324,652.848 1.621,1.121 5.039,3.328 33.121,3.891 -9.96,2.992 -30.161,-7.492 0.34,-3.84"
         style="fill:#2d793c;fill-opacity:1;fill-rule:nonzero;stroke:none"
         transform="matrix(0.13333333,0,0,-0.13333333,0,132.06667)" />
      <path
         id="path16"
         d="m 699.637,663.328 1.109,3.969 -13.25,-1.16 -9.058,-4.66 21.199,1.851"
         style="fill:#2d793c;fill-opacity:1;fill-rule:nonzero;stroke:none"
         transform="matrix(0.13333333,0,0,-0.13333333,0,132.06667)" />
      <path
         id="path17"
         d="m 1126.21,985.977 -2.37,-0.68 c -10.86,-0.481 -25.31,-4.168 -27.25,-4.328 l -1.82,-1.102 -3.73,-1.801 -3.5,-1.527 -12.96,-1.621 -0.3,0.719 -0.63,1.41 -10.92,-2.418 -0.21,2.418 -0.97,-0.09 -34.23,-4.93 6.72,3.461 6.95,3.539 -0.21,2.403 -0.92,-0.082 -6.38,0.429 -17.24,-4.918 -5.69,0.957 -6.37,0.891 -2.76,-1.687 c -5.295,-3.352 -4.424,3.476 -11.065,1.918 l -16.82,-4.84 1.09,-1.379 0.672,-1.852 -1.949,-0.168 -11.364,-0.019 0.211,-2.41 -7.98,-0.704 -5.141,-1.918 c -6.547,-2.742 -5.629,-2.199 -9.039,-1.75 l -0.199,-0.769 0.129,-1.41 -1.43,-0.121 -16.051,-2.379 c -4.32,-0.379 -2.089,-4.071 -6.429,-3.981 -13.867,0.239 -10.989,0.989 -25.867,-3.718 l 0.769,2.507 1.211,2.539 -4.813,-0.429 c -2.871,-0.25 -2.949,0.722 -11.46,-4.887 l -7.219,-0.633 0.422,-4.808 -2.41,-0.211 -13.012,-3.559 -9.352,-1.32 -8.84,-1.25 -0.207,2.41 -1.402,-0.609 -5.617,-2.442 0.367,1.02 0.402,1.48 1.391,0.59 12.5,4.031 -0.621,1.379 -1.051,0.891 1.422,0.59 12.578,3.058 -0.398,4.571 2.347,0.699 c 11.563,3.89 8.129,4.113 8.41,6.543 l 1.872,0.636 54.109,21.481 -0.66,2.371 -0.668,2.352 -2.422,-0.211 -3.281,-1.25 c -6.008,-3.442 -51.391,-8.371 -56.649,-12.231 -8.64,-6.32 -10.711,-2.39 -32.261,-8.148 l -46.637,-12.571 -19.063,-1.199 -66.308,-20.582 -13.821,-0.23 -83.98,-32.09 0.289,-3.36 -1.918,-0.16 -6.859,0.34 0.207,-2.41 -0.899,-0.078 c -11.199,-2.422 -7.488,-0.652 -25.488,-8.012 l -0.301,3.34 1.899,0.68 c 11.16,2.422 8.839,1.23 19.929,7.562 l -0.679,2.098 -0.7,2.359 -1.289,-1.558 c -3.191,-2.461 -15.453,-3.532 -16.73,-6.082 -0.32,-1.477 -10.801,-6.258 -21.699,-9.168 -14.973,-3.731 -2.352,-3.559 -14.391,-4.61 l -1.152,2.309 -0.739,2.359 -1.058,-1.578 c -2.672,-2.652 -15.442,-3.769 -16.172,-6 -3.66,-8.551 -30.668,-7.062 -35.309,-15.199 l -0.211,2.41 -0.902,-0.594 c -29.43,-18.328 -12.109,-2.968 -42.039,-21.34 l -8.059,-4.859 -0.55,0.93 c -0.051,0.48 -4.7,3.703 -9.801,-4.25 l 4.812,0.422 -2.359,-0.692 c -9.211,-2.758 -7.852,-1.668 -17.844,-9.808 l 1.172,-2.09 1.18,-2.313 -2.828,-1.226 -2.981,-1.703 0.68,3.453 0.238,2.679 -3.66,-2.511 c -7.719,-5.989 0.551,-6.239 -8.867,-9.5 l -0.422,4.82 -3.059,-1.238 -3.25,-1.731 2.161,-2.25 2.609,-2.191 -3.75,-1.301 -4.231,-1.801 -0.332,3.821 -2.437,0.293 -2.473,0.257 3.653,2.75 3.148,2.7 -2.949,0.711 -2.949,0.21 -1.532,0.852 -0.82,1.367 -1.391,-1.058 c -9.058,-7.129 -7.597,-7 -26.199,-13.469 l 0.192,-2.141 -1.2,-0.101 c -5.793,-0.508 -5.261,-0.969 -7.089,-2.11 -14.661,-12.422 -1.012,0.418 -33.243,-19.14 -33.34,-20.621 -3.05,-1.25 -33.769,-26.969 l 0.39,1.488 0.289,1.981 -1.929,-0.168 c -10.211,-2.34 -7.539,-2.614 -8.238,-5.563 l 1.929,0.172 c 20.918,1.828 48.84,31.68 72.199,36.367 l -0.742,3.332 -1.269,3.27 8.652,0.762 12.57,3.519 -1.16,1.84 -1.621,1.828 2.399,0.68 18.73,4.301 0.211,-2.391 -34.602,-14.438 0.563,-0.921 1,-0.379 -0.91,-0.582 -17.403,-9.039 0.75,-8.649 -3.839,-0.34 0.812,2 0.289,1.969 -2.199,0.289 c -2.461,0.262 -2.461,0.262 -4.199,-1.828 -2.231,-2.109 -43.633,-25.129 -48.821,-26.551 -19.453,-5.101 -4.953,-1.898 -30.281,-14.07 l 4.801,0.422 c 2.41,0.207 3.949,-0.614 7.617,4.289 l -0.887,-3.699 c -5.172,-13.043 -18.742,6.378 -22.07,-5.313 l 6.25,0.551 -2.769,-1.711 -11.813,-6.359 c -7.391,-4.04 -3.527,-9.25 -10.289,-9.848 l 0.289,-3.383 -1.469,0.332 c -2.281,1.258 -3.859,-3.199 -14.789,-5.633 -12.09,-3 -0.152,-3.648 -17.929,-16.847 l -1.18,2.328 -1.141,2.32 0.899,-4.777 1.379,-4.481 -2.418,-0.211 c -2.411,-0.211 -6.969,-3.519 -11.289,-6.84 l -0.5,5.809 -3.864,-0.34 0.172,-1.91 -0.5,-5.391 -2.922,0.223 -3.457,0.641 -0.211,-3.364 c -0.621,-6.636 -17.48,-10.527 -42.8318,-36.757 -19.3672,-19.61 -41.7773,-46.071 -43.8086,-50.59 -4.1093,-8.371 -4.8086,-0.422 -8.9179,-8.789 -2.6836,-5.571 -1.8008,-4.512 0.5898,-6.731 l -0.8633,-1.281 -7.207,-14.699 2.2187,7.929 2.25,7.731 -2.2695,-1.922 C 34.707,565.156 22.6445,545.438 23.4063,536.758 24.7852,520.879 -5.27344,520.906 17.3047,511.977 l -1.5977,-3.508 c -3,-7.301 -7.37106,-18.582 -6.66012,-20.949 1.91012,-5.18 -6.69922,-3.532 -4.19141,-13.231 l 7.31253,-28.211 1.9492,0.172 c 2.4101,0.207 12.0586,-24.141 10.3476,-27.223 -1.8476,-3.289 35.7227,-42.199 42.0313,-47.711 63.5119,-55.558 186.7309,-72.878 323.5589,-49.039 97.39,14.59 217.121,56.602 338.011,126.813 l 107.641,61.047 20.348,14.14 -4.028,-4.23 c -8.132,-9.199 -6.941,-3.758 -14.461,-14.578 l 5.782,0.5 -2.614,-3.403 c -6.109,-7.808 -9.828,-4.257 -9.238,-10.976 l -1.66,-0.141 -6.66,-1.57 0.121,-1.441 c 0.398,-4.579 -70.133,-49.059 -73.121,-53.668 -3.039,-4.403 -2.84,-0.743 -6.75,-3.243 l -54.621,-37.777 3.89,-0.133 3.45,-0.679 -2.18,-2.61 -2.219,-2.609 3.262,1.25 13.91,4.621 79.129,51.777 -0.281,-2.449 c -1.008,-4.949 -8.481,-2.699 -9.129,-6.391 -0.379,-1.48 -12,-9.769 -22.34,-16.5 -23.629,-14.898 -4.66,-7.461 -23.223,-14.379 l 0.211,-2.421 -4.57,-0.399 0.101,-1.191 c 0.301,-3.399 -11.98,-9.77 -20.492,-12.469 l 0.293,-3.379 -1.883,-0.172 c -4.129,-0.359 -35.609,-22.508 -46.769,-25.41 l 0.172,-1.93 c 0.328,-3.839 -18.352,-9.109 -17.93,-13.937 l 6.961,0.609 -0.133,1.457 c -0.199,2.383 30.84,13.602 30.461,17.934 l 1.391,0.598 8.008,2.652 29.46,17.84 -1.32,-1.551 c -2.051,-4.07 -12.398,-4.981 -12.097,-8.352 0.328,-3.847 -6.102,-2.449 -14.383,-10.218 -9,-8.059 -28.547,-14.84 -28.899,-18.782 -0.691,-3.418 -2.359,-0.687 -7.511,-3.078 l -25.02,-13.121 6.57,-0.351 c 11.66,0.031 5.91,4.621 12.192,5.16 6,0.531 1.008,-6.43 10.09,-1.77 l 23.269,11 c 14.641,7.09 4.641,7.66 25.309,12.653 l -4.629,-2.352 c -8.371,-4.371 -3.942,-4.969 -8.602,-7.289 l -45.918,-23.66 -6,-8.992 c -3.41,-5.18 -6.16,-1.528 -5.609,-7.778 l -2.109,-1.172 -2.352,-0.687 0.48,-5.524 -1.921,-0.168 c -3.387,-0.289 -2.969,-5.109 -6.797,-5.449 0,0 -11.973,-4.441 -11.321,-11.902 l -1.089,1.359 -1.532,0.844 -1.968,-2.602 c -4.383,-5.23 0.718,-8.191 -3.942,-15.628 l -2.09,-4.043 6.711,-15.661 6.981,0.614 -0.172,1.918 0.961,0.082 c 0.519,0.043 0.863,0.008 1.355,0.043 l -0.039,0.445 28.5,2.488 0.098,-1.117 c 3.922,1.965 7.09,1.902 6.804,5.219 l 1,-0.399 c 6.141,-0.902 42.333,23.11 52.879,27.438 28.114,11.18 15.934,14.723 45.852,27.512 0.93,0.589 1.43,0.129 1.172,3.031 l 0.969,0.09 c 5.519,0.476 5.91,1.726 9.089,4.429 8.2,8.45 23.95,13.938 25.942,18.981 l 8.816,4.668 c 19.852,11.16 6.762,8.57 28.953,18.281 0.719,0.07 1.75,-0.332 1.368,4 l 1.89,0.168 c 0.5,0.043 24.16,20.531 28.66,21.391 5.743,1.019 2.071,4.09 7.563,7.941 l 25.508,18.961 -0.328,3.84 2.847,0.527 2.602,0.699 -0.129,1.434 c -0.211,2.398 21.449,18.137 23.469,22.656 2.859,6.082 10.199,8.172 22.89,26.774 6.071,8.258 2.528,-1.293 8.391,9.437 6.066,10.93 5.637,4.832 7.898,12.071 1.989,5.031 6.559,11.011 10.399,11.339 l -0.68,2.379 c -0.859,4.274 18.313,37.442 18.141,39.403 -0.321,3.609 23.294,49.789 26.334,81.32 l 2.16,0.187 0.42,1.024 c 2.28,34.609 1.65,30.68 -3.4,44.078 -2.56,7.039 -5.95,4.332 -6.54,11.051 l -1.43,-0.121 c -3.84,-0.34 -1.68,2.5 -5.236,4.14 -35.347,16.078 -34.226,3.321 -36.476,9.68 -1.801,4.18 -5.641,-2.219 -46.231,4.672 l 0.289,-3.371 -1.879,-0.653 c -31.492,-5.679 -28.121,-5.386 -77.363,-5.296 l 6.883,2.039 7.109,1.589 -0.551,6.25 -3.328,-0.761 c -24.453,-3.11 -21.511,-3.367 -25.742,-4.668 -5.187,-1.942 -69.219,-15.762 -78.949,-15.153 l 0.289,-3.386 -12.73,-1.114 -0.207,2.422 -1.403,-0.609 -12.14,-3.012 -1.989,0.801 0.399,-4.559 -2.469,0.739 c -1.449,-0.129 -1.57,1.332 -4.289,-3.782 l 3.18,-0.187 c 5.82,-0.461 5.48,3.398 13.449,4.09 36.09,3.16 0.332,1.461 56.992,11.051 l 0.316,-3.614 4.571,0.403 -0.321,3.609 1.891,0.16 c 16.121,1.86 5.152,2.379 47.34,-0.488 l -0.809,-1.973 -0.301,-2 -40.718,-8.398 0.211,-2.41 -1.442,-0.129 c -29.84,-2.614 -90,-18.782 -91.859,-19.91 -6.742,-3.032 -91.109,-16.922 -97.301,-20.883 -8.769,-5.137 -14.371,0.703 -37.469,-9.578 -22.859,-10.481 -37.859,-7.911 -43.73,-12.809 -4.082,-3.262 -34.531,-4.473 -37.609,-8.152 -6.153,-7.059 -13.122,-7.668 -32.063,-10.301 l 0.121,-1.438 c 0.18,-1.941 -27.469,-12.839 -25.808,-31.82 0.949,-10.832 11.367,-10.891 53.25,-10.16 106.929,2.59 106.089,12.211 214.929,28.777 l 54.09,8.094 0.117,-1.453 c 0.344,-3.82 -5.629,-10.418 -32.84,-26.598 C 666.668,522.02 562.426,480.406 502.707,461.84 443.535,445.297 396.625,432.707 345.535,426.758 c -43.07,-3.77 -103.91,-6.68 -155.949,9.14 -46.391,17.532 -40.68,35.231 -36.859,52.532 l 3.82,9.058 c 4.84,11.34 7.711,17.41 38.551,49.7 l 20.847,19.519 19.942,16.051 27.008,20.769 c 81.992,66.102 175.46,114.289 274.203,166.332 l 84.539,39.379 87.879,34.821 51.871,19.379 c 37.308,14.16 25.23,10.91 123.961,43.8 l 36.859,10.731 c 159.543,46.918 196.263,59.371 198.683,62.238 l 2.83,1.223 2.91,-0.25 0.75,2.48 -1.17,2.317"
         style="fill:#2d793c;fill-opacity:1;fill-rule:nonzero;stroke:none"
         transform="matrix(0.13333333,0,0,-0.13333333,0,132.06667)" />
      <path
         id="path18"
         d="m 907.516,698.25 2.589,-2.191 -0.339,3.839 -1.371,-0.601 -0.879,-1.047"
         style="fill:#2d793c;fill-opacity:1;fill-rule:nonzero;stroke:none"
         transform="matrix(0.13333333,0,0,-0.13333333,0,132.06667)" />
      <path
         id="path19"
         d="m 890.965,695.828 0.691,3.461 -3.39,-0.289 0.3,-3.391 2.399,0.219"
         style="fill:#2d793c;fill-opacity:1;fill-rule:nonzero;stroke:none"
         transform="matrix(0.13333333,0,0,-0.13333333,0,132.06667)" />
    </g>
  </g>
</svg>
